<?xml version="1.0" encoding="UTF-8" standalone="no"?>
<svg width="50px" height="41px" viewBox="0 0 50 41" version="1.1" xmlns="http://www.w3.org/2000/svg" xmlns:xlink="http://www.w3.org/1999/xlink">
    <!-- Generator: Sketch 48.1 (47250) - http://www.bohemiancoding.com/sketch -->
    <title>logo</title>
    <desc>Created with Sketch.</desc>
    <defs></defs>
    <g id="Page-1" stroke="none" stroke-width="1" fill="none" fill-rule="evenodd">
        <g id="logo" fill="#000000" fill-rule="nonzero">
            <path d="M31.5,7 L31.5,2.9973917 C31.5,1.343834 30.1610405,0 28.5087557,0 L4.4912443,0 C2.8446764,0 1.5,1.3449148 1.5,2.9973917 L1.5,7 L3.5,7 L3.5,2.9973917 C3.5,2.449405 3.9493253,2 4.4912443,2 L28.5087557,2 C29.0548408,2 29.5,2.4467798 29.5,2.9973917 L29.5,7 L31.5,7 Z" id="Shape"></path>
            <path d="M2,9.9978926 L2,37.0021074 C2,38.1080168 2.8950076,39 4.0071897,39 L45.9928103,39 C47.1022804,39 48,38.1043923 48,37.0021074 L48,9.9978926 C48,8.8919832 47.1049924,8 45.9928103,8 L4.0071897,8 C2.8977196,8 2,8.8956077 2,9.9978926 Z M0,9.9978926 C0,7.7899175 1.7942683,6 4.0071897,6 L45.9928103,6 C48.2059201,6 50,7.7837733 50,9.9978926 L50,37.0021074 C50,39.2100825 48.2057317,41 45.9928103,41 L4.0071897,41 C1.7940799,41 0,39.2162267 0,37.0021074 L0,9.9978926 Z" id="Shape"></path>
            <path d="M31,27 C30.8434984,30.1782371 28.2170624,32.7070096 25,32.7070096 C21.7829376,32.7070096 19.1565016,30.1782371 19,27 L31,27 Z" id="Shape"></path>
            <path d="M21,19.2937063 C21,20.6735173 19.8804545,21.7925408 18.5,21.7925408 C17.1190909,21.7925408 16,20.6735173 16,19.2937063 C16,17.913441 17.1190909,16.7948718 18.5,16.7948718 C19.8804545,16.7948718 21,17.913441 21,19.2937063" id="Shape"></path>
            <path d="M34.490174,19.2937063 C34.490174,20.6735173 33.3706285,21.7925408 31.990174,21.7925408 C30.6092649,21.7925408 29.490174,20.6735173 29.490174,19.2937063 C29.490174,17.913441 30.6092649,16.7948718 31.990174,16.7948718 C33.3706285,16.7948718 34.490174,17.913441 34.490174,19.2937063" id="Shape"></path>
        </g>
    </g>
</svg>